<?xml version="1.0" encoding="UTF-8"?>
<svg id="Layer_1" xmlns="http://www.w3.org/2000/svg" version="1.1" viewBox="0 0 33 33">
  <!-- Generator: Adobe Illustrator 29.6.1, SVG Export Plug-In . SVG Version: 2.1.1 Build 9)  -->
  <defs>
    <style>
      .st0 {
        fill: #7ea2c5;
        fill-rule: evenodd;
      }
    </style>
  </defs>
  <path class="st0" d="M30.25,10.44c-.75-1.38-2.13-2.23-4.88-3.94l-2.9-1.8c-2.91-1.8-4.36-2.71-5.97-2.71s-3.06.9-5.97,2.71l-2.9,1.8c-2.75,1.71-4.13,2.56-4.88,3.94-.75,1.38-.75,3.03-.75,6.35v2.21c0,5.66,0,8.48,1.7,10.24s4.43,1.76,9.9,1.76h5.8c5.47,0,8.2,0,9.9-1.76,1.7-1.76,1.7-4.59,1.7-10.24v-2.21c0-3.32,0-4.98-.75-6.35ZM11.31,12.05c2.45,0,2.44,3.8,0,3.8s-2.44-3.8,0-3.8ZM21.5,23.17c-1.41,1.05-3.13,1.66-5,1.66s-3.59-.62-5-1.66c-.48-.36-.58-1.04-.23-1.52.36-.48,1.04-.58,1.52-.23,1.06.78,2.33,1.24,3.7,1.24s2.65-.45,3.7-1.24c.48-.36,1.16-.26,1.52.23.36.48.26,1.16-.23,1.52,0,0,.02,0,.02,0ZM21.01,15.71c-2.45,0-2.44-3.8,0-3.8s2.44,3.8,0,3.8Z"/>
</svg>