<?xml version="1.0" encoding="UTF-8"?>
<svg id="Layer_1" xmlns="http://www.w3.org/2000/svg" version="1.1" viewBox="0 0 165 35">
  <!-- Generator: Adobe Illustrator 29.6.1, SVG Export Plug-In . SVG Version: 2.1.1 Build 9)  -->
  <defs>
    <style>
      .st0 {
        fill-rule: evenodd;
      }

      .st0, .st1 {
        fill: #fff;
      }
    </style>
  </defs>
  <path class="st1" d="M65.36,28.28c-1.19,0-2.26-.25-3.19-.76-.91-.5-1.63-1.2-2.16-2.1-.52-.9-.78-1.93-.78-3.11v-7.84h3.7v7.76c0,.56.09,1.05.28,1.46.19.39.47.69.84.9s.81.31,1.32.31c.77,0,1.36-.23,1.79-.7.43-.47.64-1.12.64-1.96v-7.76h3.67v7.84c0,1.19-.26,2.24-.78,3.14-.5.9-1.22,1.6-2.16,2.1-.91.49-1.97.73-3.16.73h0ZM82.74,28l-5.24-6.97,5.21-6.55h4.23l-6.1,7.39.14-1.79,6.24,7.92s-4.48,0-4.48,0ZM74.11,28V7.76h3.67v20.24h-3.67ZM95.01,28.28c-1.59,0-2.95-.27-4.09-.81-1.12-.54-2.14-1.35-3.05-2.44l2.52-2.52c.58.77,1.25,1.36,2.02,1.79.77.41,1.7.62,2.8.62.99,0,1.77-.2,2.35-.59.6-.39.9-.93.9-1.62,0-.6-.17-1.08-.5-1.46-.34-.37-.78-.69-1.34-.95-.54-.26-1.15-.49-1.82-.7-.65-.22-1.32-.48-1.99-.76-.65-.28-1.26-.63-1.82-1.04-.54-.43-.98-.97-1.32-1.62-.34-.67-.5-1.51-.5-2.52,0-1.19.29-2.21.87-3.05s1.37-1.48,2.38-1.93c1.01-.45,2.15-.67,3.42-.67,1.34,0,2.56.25,3.64.76,1.08.5,1.97,1.16,2.66,1.96l-2.52,2.52c-.58-.63-1.18-1.1-1.79-1.4-.6-.3-1.28-.45-2.04-.45-.88,0-1.57.17-2.07.5-.5.34-.76.82-.76,1.46,0,.54.17.98.5,1.32.34.34.78.63,1.32.87.56.24,1.17.48,1.82.7.67.22,1.33.48,1.99.76.67.28,1.28.64,1.82,1.09.56.45,1.01,1.03,1.34,1.74.34.69.5,1.55.5,2.58,0,1.83-.64,3.27-1.93,4.31-1.29,1.05-3.05,1.57-5.29,1.57l-.02-.02ZM106.83,28V8.85h3.67v19.15h-3.67ZM103.67,17.7v-3.22h10v3.22h-10ZM121.06,28.28c-1.23,0-2.34-.31-3.33-.92-.99-.62-1.76-1.46-2.32-2.52-.56-1.06-.84-2.26-.84-3.58s.28-2.55.84-3.61c.56-1.06,1.33-1.9,2.32-2.52.99-.62,2.1-.92,3.33-.92.97,0,1.84.2,2.6.59.77.39,1.37.94,1.82,1.65.47.69.72,1.47.76,2.35v4.87c-.04.9-.29,1.69-.76,2.38-.45.69-1.05,1.24-1.82,1.65-.76.39-1.63.59-2.6.59h0ZM121.73,24.89c1.03,0,1.86-.34,2.49-1.01.64-.69.95-1.58.95-2.66,0-.71-.15-1.33-.45-1.88-.28-.56-.68-.99-1.2-1.29-.5-.32-1.1-.48-1.79-.48s-1.27.16-1.79.48c-.5.3-.9.73-1.2,1.29-.28.54-.42,1.17-.42,1.88s.14,1.37.42,1.93c.3.54.7.97,1.2,1.29.52.3,1.12.45,1.79.45h0ZM124.98,28v-3.64l.59-3.3-.59-3.25v-3.33h3.64v13.52s-3.64,0-3.64,0ZM136.12,28.11l-5.66-13.64h3.98l3.75,10.42h-1.34l3.89-10.42h4l-6.02,13.64h-2.6,0ZM132.37,33.66l4.12-8.71,2.24,3.16-2.46,5.54h-3.9ZM49.58,28.12c-1.59,0-2.95-.27-4.09-.81-1.12-.54-2.14-1.35-3.05-2.44l2.52-2.52c.58.77,1.25,1.36,2.02,1.79.77.41,1.7.62,2.8.62.99,0,1.77-.2,2.35-.59.6-.39.9-.93.9-1.62,0-.6-.17-1.08-.5-1.46-.34-.37-.78-.69-1.34-.95-.54-.26-1.15-.49-1.82-.7-.65-.22-1.32-.48-1.99-.76-.65-.28-1.26-.63-1.82-1.04-.54-.43-.98-.97-1.32-1.62-.34-.67-.5-1.51-.5-2.52,0-1.19.29-2.21.87-3.05s1.37-1.48,2.38-1.93c1.01-.45,2.15-.67,3.42-.67,1.34,0,2.56.25,3.64.76,1.08.5,1.97,1.16,2.66,1.96l-2.52,2.52c-.58-.63-1.18-1.1-1.79-1.4-.6-.3-1.28-.45-2.04-.45-.88,0-1.57.17-2.07.5-.5.34-.76.82-.76,1.46,0,.54.17.98.5,1.32.34.34.78.63,1.32.87.56.24,1.17.48,1.82.7.67.22,1.33.48,1.99.76.67.28,1.28.64,1.82,1.09.56.45,1.01,1.03,1.34,1.74.34.69.5,1.55.5,2.58,0,1.83-.64,3.27-1.93,4.31-1.29,1.05-3.05,1.57-5.29,1.57l-.02-.02Z"/>
  <path class="st0" d="M27.3,11.87c-.7-1.28-1.98-2.08-4.54-3.66l-2.7-1.68c-2.71-1.68-4.06-2.52-5.56-2.52s-2.85.84-5.56,2.52l-2.7,1.68c-2.56,1.59-3.84,2.38-4.54,3.66h0c-.7,1.27-.7,2.82-.7,5.91v2.05c0,5.27,0,7.9,1.58,9.54,1.58,1.64,4.13,1.64,9.22,1.64h5.4c5.09,0,7.64,0,9.22-1.64,1.58-1.64,1.58-4.27,1.58-9.54v-2.05c0-3.09,0-4.63-.7-5.91ZM9.88,14.06c2.45,0,2.44,3.8,0,3.8s-2.44-3.8,0-3.8ZM19.14,23.72c-1.31.97-2.92,1.55-4.65,1.55s-3.34-.58-4.65-1.55c-.45-.34-.54-.97-.21-1.42.34-.45.97-.54,1.42-.21h-.02c.99.73,2.17,1.15,3.45,1.15s2.47-.42,3.45-1.15c.45-.33,1.09-.24,1.42.21.33.45.24,1.09-.21,1.42ZM18.67,17.69c-2.45,0-2.44-3.8,0-3.8s2.44,3.8,0,3.8Z"/>
</svg>