<?xml version="1.0" encoding="UTF-8"?>
<svg id="Layer_1" xmlns="http://www.w3.org/2000/svg" version="1.1" viewBox="0 0 15 16">
  <!-- Generator: Adobe Illustrator 29.6.1, SVG Export Plug-In . SVG Version: 2.1.1 Build 9)  -->
  <defs>
    <style>
      .st0 {
        fill: #fff;
        stroke: #f8701b;
        stroke-linecap: round;
        stroke-linejoin: round;
        stroke-width: 1.5px;
      }
    </style>
  </defs>
  <path class="st0" d="M6.82,1.53c.02-.06.06-.11.11-.14.05-.03.11-.05.17-.05.06,0,.11.02.16.05.05.04.09.08.12.14l1.37,3.12c.09.2.22.38.39.52.16.13.35.22.56.26l3.06.5c.06,0,.11.04.16.08.05.04.08.1.1.16.02.06.02.13,0,.2-.01.06-.04.12-.09.17l-2.21,2.43c-.15.17-.26.36-.32.58-.06.22-.08.45-.04.68l.52,3.43c.01.07,0,.13-.02.19-.02.06-.06.11-.11.15-.09.08-.23.09-.33.03l-2.73-1.62c-.18-.11-.38-.16-.58-.16-.2,0-.4.06-.58.16l-2.73,1.62c-.1.07-.24.05-.33-.03-.05-.04-.09-.09-.11-.15-.02-.06-.03-.13-.02-.19l.52-3.43c.04-.23.02-.46-.04-.68-.06-.21-.17-.41-.32-.58l-2.21-2.42s-.07-.11-.09-.17c-.01-.06-.01-.13,0-.2.02-.06.05-.12.1-.16.05-.04.1-.07.16-.08l3.06-.5c.2-.04.4-.12.56-.26.16-.14.3-.31.39-.52l1.37-3.12Z"/>
</svg>