<?xml version="1.0" encoding="UTF-8"?>
<svg id="Layer_1" xmlns="http://www.w3.org/2000/svg" version="1.1" viewBox="0 0 15 16">
  <!-- Generator: Adobe Illustrator 29.6.1, SVG Export Plug-In . SVG Version: 2.1.1 Build 9)  -->
  <defs>
    <style>
      .st0, .st1 {
        fill: #fff;
      }

      .st0, .st1, .st2 {
        stroke: #f8701b;
        stroke-linecap: round;
        stroke-linejoin: round;
        stroke-width: 1.5px;
      }

      .st1 {
        display: none;
      }

      .st2 {
        fill: none;
      }
    </style>
  </defs>
  <path class="st0" d="M6.82,1.53c.02-.06.06-.11.11-.14.05-.03.11-.05.17-.05.06,0,.11.02.16.05.05.04.09.08.12.14l1.37,3.12c.09.2.22.38.39.52.16.13.35.22.56.26l3.06.5c.06,0,.11.04.16.08.05.04.08.1.1.16.02.06.02.13,0,.2-.01.06-.04.12-.09.17l-2.21,2.43c-.15.17-.26.36-.32.58-.06.22-.08.45-.04.68l.52,3.43c.01.07,0,.13-.02.19-.02.06-.06.11-.11.15-.09.08-.23.09-.33.03l-2.73-1.62c-.18-.11-.38-.16-.58-.16-.2,0-.4.06-.58.16l-2.73,1.62c-.1.07-.24.05-.33-.03-.05-.04-.09-.09-.11-.15-.02-.06-.03-.13-.02-.19l.52-3.43c.04-.23.02-.46-.04-.68-.06-.21-.17-.41-.32-.58l-2.21-2.42s-.07-.11-.09-.17c-.01-.06-.01-.13,0-.2.02-.06.05-.12.1-.16.05-.04.1-.07.16-.08l3.06-.5c.2-.04.4-.12.56-.26.16-.14.3-.31.39-.52l1.37-3.12Z"/>
  <rect class="st1" x="7.1" y="1.33" width="0" height="10.78"/>
  <path class="st2" d="M2.87,6.62c.77,0,1.54,0,2.31,0,.12,0,.25,0,.36-.07.09-.05.15-.13.21-.21.18-.24.35-.47.53-.71.05-.06.1-.13.11-.21.02-.19-.19-.36-.11-.53-.07,2.24-.45,4.46-.44,6.7-.39.09-.77.23-1.12.43-.08.05-.17.1-.22.18-.06.09-.09.22-.2.22.12-.52.27-1.03.46-1.53.12-.32.26-.66.25-1,0-.47-.27-.9-.57-1.27s-.65-.7-.87-1.11c.59.04,1.17.08,1.76.13.04,0,.1.01.12.05,0,.02,0,.05,0,.07-.12.59-.23,1.18-.35,1.76"/>
  <rect class="st0" x="6.38" y="2.67" width=".21" height="9.05" transform="translate(12.97 14.39) rotate(180)"/>
</svg>